<svg width="37" height="24" viewBox="0 0 37 24" fill="none" xmlns="http://www.w3.org/2000/svg">
<path d="M29.5348 9.65381C30.4723 9.65381 31.3512 9.82959 32.1715 10.1812C33.0035 10.5327 33.7242 11.0132 34.3336 11.6226C34.9547 12.2202 35.441 12.9292 35.7926 13.7495C36.1559 14.5698 36.3375 15.4546 36.3375 16.4038C36.3375 17.3413 36.1617 18.2202 35.8102 19.0405C35.4586 19.8491 34.9723 20.564 34.3512 21.1851C33.7418 21.7944 33.027 22.2749 32.2066 22.6265C31.3863 22.978 30.5133 23.1538 29.5875 23.1538H9.3375C8.09531 23.1538 6.92344 22.9194 5.82187 22.4507C4.73203 21.9819 3.77695 21.3433 2.95664 20.5347C2.14804 19.7144 1.50937 18.7593 1.04062 17.6694C0.571873 16.5679 0.337498 15.396 0.337498 14.1538C0.337498 12.9116 0.571873 11.7456 1.04062 10.6558C1.50937 9.5542 2.14804 8.59912 2.95664 7.79053C3.77695 6.97021 4.73203 6.32568 5.82187 5.85693C6.92344 5.38818 8.09531 5.15381 9.3375 5.15381C9.87656 5.15381 10.4215 5.20654 10.9723 5.31201C11.441 4.58545 11.9801 3.93506 12.5895 3.36084C13.2105 2.7749 13.8844 2.28271 14.6109 1.88428C15.3375 1.48584 16.1109 1.18115 16.9312 0.970215C17.7516 0.759277 18.5953 0.653809 19.4625 0.653809C20.7633 0.653809 21.9879 0.882324 23.1363 1.33936C24.2965 1.79639 25.3219 2.4292 26.2125 3.23779C27.1031 4.03467 27.8355 4.98389 28.4098 6.08545C28.9957 7.18701 29.3707 8.37646 29.5348 9.65381ZM29.5875 20.9038C30.2086 20.9038 30.7887 20.7866 31.3277 20.5522C31.8785 20.3179 32.359 19.9956 32.7691 19.5854C33.1793 19.1753 33.5016 18.7007 33.7359 18.1616C33.9703 17.6108 34.0875 17.0249 34.0875 16.4038C34.0875 15.7827 33.9703 15.2026 33.7359 14.6636C33.5016 14.1128 33.1793 13.6323 32.7691 13.2222C32.359 12.812 31.8785 12.4897 31.3277 12.2554C30.7887 12.021 30.2086 11.9038 29.5875 11.9038H27.3375V10.7788C27.3375 9.68896 27.1324 8.66943 26.7223 7.72021C26.3121 6.75928 25.7496 5.92139 25.0348 5.20654C24.3199 4.4917 23.482 3.9292 22.5211 3.51904C21.5719 3.10889 20.5523 2.90381 19.4625 2.90381C18.6422 2.90381 17.8512 3.02686 17.0895 3.27295C16.3277 3.51904 15.6246 3.86475 14.9801 4.31006C14.3473 4.75537 13.7848 5.29443 13.2926 5.92725C12.8004 6.54834 12.4078 7.24561 12.1148 8.01904C11.2359 7.60889 10.3102 7.40381 9.3375 7.40381C8.4 7.40381 7.52109 7.57959 6.70078 7.93115C5.89219 8.28271 5.17734 8.76904 4.55625 9.39014C3.94687 9.99951 3.4664 10.7144 3.11484 11.5347C2.76328 12.355 2.5875 13.228 2.5875 14.1538C2.5875 15.0913 2.76328 15.9702 3.11484 16.7905C3.4664 17.5991 3.94687 18.314 4.55625 18.9351C5.17734 19.5444 5.89219 20.0249 6.70078 20.3765C7.52109 20.728 8.4 20.9038 9.3375 20.9038H29.5875Z" fill="#004578"/>
</svg>
