<svg width="64" height="64" viewBox="0 0 64 64" fill="none" xmlns="http://www.w3.org/2000/svg">
    <rect width="64" height="64" fill="#26FC90"/>
    <path d="M18.4496 30L22.0531 33.6035L21.4027 36.1523L15.2504 30L22.809 22.459L24.391 24.041L18.4496 30ZM49.9496 30L42.391 37.541L40.809 35.959L46.7504 30L44.1313 27.3809C44.4359 27.0762 44.7113 26.7949 44.9574 26.5371C45.2035 26.2676 45.4262 25.9863 45.6254 25.6934L49.9496 30ZM40.3344 18.75C40.8266 18.75 41.2836 18.8379 41.7055 19.0137C42.1391 19.1895 42.5141 19.4355 42.8305 19.752C43.1469 20.0684 43.393 20.4375 43.5688 20.8594C43.7563 21.2812 43.85 21.7383 43.85 22.2305C43.85 22.6875 43.7621 23.1328 43.5863 23.5664C43.4105 24 43.1586 24.3809 42.8305 24.709L30.227 37.3477L23.6 39L25.2523 32.373L37.8559 19.752C38.184 19.4238 38.5648 19.1777 38.9984 19.0137C39.432 18.8379 39.8773 18.75 40.3344 18.75ZM41.2309 23.127C41.477 22.8809 41.6 22.582 41.6 22.2305C41.6 21.8672 41.477 21.5742 41.2309 21.3516C40.9965 21.1172 40.6977 21 40.3344 21C40.1703 21 40.0121 21.0293 39.8598 21.0879C39.7074 21.1348 39.5727 21.2168 39.4555 21.334L27.2914 33.5332L26.6938 35.9062L29.0668 35.3086L41.2309 23.127Z" fill="#004578"/>
</svg>