<svg width="64" height="64" viewBox="0 0 64 64" fill="none" xmlns="http://www.w3.org/2000/svg">
    <rect width="64" height="64" fill="#26FC90"/>
    <path d="M14.6 23.25V14.25H23.6V16.5H16.85V23.25H14.6ZM16.85 36.75V43.5H23.6V45.75H14.6V36.75H16.85ZM48.35 43.5V36.75H50.6V45.75H41.6V43.5H48.35ZM41.6 14.25H50.6V23.25H48.35V16.5H41.6V14.25ZM21.35 36.75V23.25H23.6V36.75H21.35ZM28.1 36.75V23.25H30.35V36.75H28.1ZM34.85 36.75V23.25H37.1V36.75H34.85ZM43.85 23.25V36.75H41.6V23.25H43.85Z" fill="#004578"/>
</svg>