<svg width="64" height="64" viewBox="0 0 64 64" fill="#26FC90" xmlns="http://www.w3.org/2000/svg">
    <rect width="64" height="64" fill="#26FC90"/>
    <g class="point" transform="translate(15,10)">
        <path d="M16 24.0002V11.5002M16 11.5002L12 15.5002M16 11.5002L20 15.5002M20 20.0001H26.5294C30.6324 20.0001 32 16.5962 32 14.1649C32 11.7336 29.7206 9.30223 26.0735 9.30223C26.0735 4.92583 22.8824 2.49615 20.1471 1.52343C17.4118 0.550711 12.8529 0.551054 10.5735 4.92583C6.01471 3.95329 1 6.8709 1 12.7061C1 18.5413 6.01471 20.0001 7.83823 20.0001H12" stroke="#004578" stroke-width="2"/>
        <rect x="8" y="24.0002" width="16" height="17" stroke="#004578" stroke-width="2"/>
        <line x1="12" y1="27.0002" x2="12" y2="38.0002" stroke="#004578" stroke-width="2"/>
        <line x1="16" y1="27.0002" x2="16" y2="38.0002" stroke="#004578" stroke-width="2"/>
        <line x1="20" y1="27.0002" x2="20" y2="38.0002" stroke="#004578" stroke-width="2"/>
    </g>
</svg>