<svg width="37" height="36" viewBox="0 0 37 36" fill="none" xmlns="http://www.w3.org/2000/svg">
<path d="M31.6793 17.271C31.6793 17.3765 31.6793 17.4819 31.6793 17.5874C31.691 17.6929 31.6969 17.7983 31.6969 17.9038C31.6969 18.0093 31.691 18.1147 31.6793 18.2202C31.6793 18.3257 31.6793 18.4312 31.6793 18.5366L36.232 21.3667L33.4371 28.0991L28.2164 26.9038C27.9352 27.2085 27.6422 27.5015 27.3375 27.7827L28.5328 33.0034L21.8004 35.7983L18.9703 31.2456C18.8648 31.2456 18.7594 31.2515 18.6539 31.2632C18.5484 31.2632 18.443 31.2632 18.3375 31.2632C18.232 31.2632 18.1266 31.2632 18.0211 31.2632C17.9156 31.2515 17.8102 31.2456 17.7047 31.2456L14.8746 35.7983L8.14219 33.0034L9.3375 27.7827C9.03281 27.5015 8.73984 27.2085 8.45859 26.9038L3.23789 28.0991L0.442966 21.3667L4.9957 18.5366C4.9957 18.4312 4.98984 18.3257 4.97812 18.2202C4.97812 18.1147 4.97812 18.0093 4.97812 17.9038C4.97812 17.7983 4.97812 17.6929 4.97812 17.5874C4.98984 17.4819 4.9957 17.3765 4.9957 17.271L0.442966 14.4409L3.23789 7.7085L8.45859 8.90381C8.73984 8.59912 9.03281 8.30615 9.3375 8.0249L8.14219 2.8042L14.8746 0.00927734L17.7047 4.56201C17.8102 4.56201 17.9156 4.56201 18.0211 4.56201C18.1266 4.55029 18.232 4.54443 18.3375 4.54443C18.443 4.54443 18.5484 4.55029 18.6539 4.56201C18.7594 4.56201 18.8648 4.56201 18.9703 4.56201L21.8004 0.00927734L28.5328 2.8042L27.3375 8.0249C27.6422 8.30615 27.9352 8.59912 28.2164 8.90381L33.4371 7.7085L36.232 14.4409L31.6793 17.271ZM29.6227 19.5562C29.6461 19.2749 29.6695 18.9995 29.693 18.73C29.7164 18.4487 29.7281 18.1675 29.7281 17.8862C29.7281 17.6167 29.7164 17.3413 29.693 17.0601C29.6695 16.7788 29.6461 16.5034 29.6227 16.2339L33.7711 13.6499L32.2594 9.99365L27.4957 11.1011C27.1324 10.6558 26.7574 10.2456 26.3707 9.87061C25.9957 9.49561 25.5855 9.12061 25.1402 8.74561L26.2477 3.98193L22.5914 2.47021L19.9898 6.61865C19.7203 6.59521 19.4449 6.57178 19.1637 6.54834C18.8824 6.5249 18.607 6.51318 18.3375 6.51318C18.0562 6.51318 17.775 6.5249 17.4937 6.54834C17.2242 6.57178 16.9488 6.59521 16.6676 6.61865L14.0836 2.47021L10.4273 3.98193L11.5348 8.74561C11.0895 9.10889 10.6793 9.48389 10.3043 9.87061C9.92929 10.2456 9.55429 10.6558 9.17929 11.1011L4.41562 9.99365L2.9039 13.6499L7.05234 16.2515C7.0289 16.5327 7.00547 16.814 6.98203 17.0952C6.95859 17.3647 6.94687 17.6401 6.94687 17.9214C6.94687 18.1909 6.95859 18.4663 6.98203 18.7476C7.00547 19.0288 7.0289 19.3042 7.05234 19.5737L2.9039 22.1577L4.41562 25.814L9.17929 24.7065C9.54258 25.1519 9.91172 25.562 10.2867 25.937C10.6734 26.312 11.0895 26.687 11.5348 27.062L10.4273 31.8257L14.0836 33.3374L16.6852 29.189C16.9547 29.2124 17.2301 29.2358 17.5113 29.2593C17.7926 29.2827 18.068 29.2944 18.3375 29.2944C18.6187 29.2944 18.8941 29.2827 19.1637 29.2593C19.4449 29.2358 19.7262 29.2124 20.0074 29.189L22.5914 33.3374L26.2477 31.8257L25.1402 27.062C25.5855 26.6987 25.9957 26.3296 26.3707 25.9546C26.7457 25.5679 27.1207 25.1519 27.4957 24.7065L32.2594 25.814L33.7711 22.1577L29.6227 19.5562ZM18.3375 11.2944C19.2516 11.2944 20.107 11.4702 20.9039 11.8218C21.7125 12.1616 22.4156 12.6304 23.0133 13.228C23.6109 13.8257 24.0797 14.5288 24.4195 15.3374C24.7711 16.1343 24.9469 16.9897 24.9469 17.9038C24.9469 18.8179 24.7711 19.6792 24.4195 20.4878C24.0797 21.2847 23.6109 21.9819 23.0133 22.5796C22.4156 23.1772 21.7125 23.6519 20.9039 24.0034C20.107 24.3433 19.2516 24.5132 18.3375 24.5132C17.4234 24.5132 16.5621 24.3433 15.7535 24.0034C14.9566 23.6519 14.2594 23.1772 13.6617 22.5796C13.0641 21.9819 12.5895 21.2847 12.2379 20.4878C11.898 19.6792 11.7281 18.8179 11.7281 17.9038C11.7281 16.9897 11.898 16.1343 12.2379 15.3374C12.5895 14.5288 13.0641 13.8257 13.6617 13.228C14.2594 12.6304 14.9566 12.1616 15.7535 11.8218C16.5621 11.4702 17.4234 11.2944 18.3375 11.2944ZM18.3375 22.5444C18.982 22.5444 19.5855 22.4272 20.148 22.1929C20.7105 21.9468 21.2027 21.6128 21.6246 21.1909C22.0465 20.769 22.3746 20.2769 22.609 19.7144C22.8551 19.1519 22.9781 18.5483 22.9781 17.9038C22.9781 17.2593 22.8551 16.6558 22.609 16.0933C22.3746 15.5308 22.0465 15.0386 21.6246 14.6167C21.2027 14.1948 20.7105 13.8667 20.148 13.6323C19.5855 13.3862 18.982 13.2632 18.3375 13.2632C17.693 13.2632 17.0895 13.3862 16.527 13.6323C15.9645 13.8667 15.4723 14.1948 15.0504 14.6167C14.6285 15.0386 14.2945 15.5308 14.0484 16.0933C13.8141 16.6558 13.6969 17.2593 13.6969 17.9038C13.6969 18.5483 13.8141 19.1519 14.0484 19.7144C14.2945 20.2769 14.6285 20.769 15.0504 21.1909C15.4723 21.6128 15.9645 21.9468 16.527 22.1929C17.0895 22.4272 17.693 22.5444 18.3375 22.5444Z" fill="#004578"/>
</svg>
