<svg width="600" height="450" viewBox="0 0 600 450" fill="none" xmlns="http://www.w3.org/2000/svg">
<path d="M600 0H0V450H600V0Z" fill="#005A9E"/>
<path d="M600 365H0V450H600V365Z" fill="#0078D4"/>
<path d="M354.409 60H244.592V121H354.409V60Z" fill="#0078D4"/>
<path d="M238.602 142.4H206.156V160.4H238.602V142.4Z" fill="#C7E0F4"/>
<path d="M207.654 30.7H186.689V42.2999H207.654V30.7Z" fill="#C7E0F4"/>
<path d="M436.273 26H399.334V47H436.273V26Z" fill="#0078D4"/>
<path d="M504.16 181.8H487.687V190.9H504.16V181.8Z" fill="#C7E0F4"/>
<path d="M127.288 305.7H77.8701V333.2H127.288V305.7Z" fill="#0078D4"/>
<path d="M120.799 47.4H88.3528V65.4H120.799V47.4Z" fill="#0078D4"/>
<path d="M543.095 309.4H505.657V330.2H543.095V309.4Z" fill="#0078D4"/>
<path d="M166.722 95H56.9053V156H166.722V95Z" fill="#0078D4"/>
<path d="M138.769 225.5H28.9517V286.5H138.769V225.5Z" fill="#0078D4"/>
<path d="M575.042 225.5H465.225V286.5H575.042V225.5Z" fill="#0078D4"/>
<path d="M542.096 95H432.28V156H542.096V95Z" fill="#0078D4"/>
<path d="M111.814 143.5C121.738 143.5 129.784 135.441 129.784 125.5C129.784 115.559 121.738 107.5 111.814 107.5C101.889 107.5 93.8435 115.559 93.8435 125.5C93.8435 135.441 101.889 143.5 111.814 143.5Z" fill="#51E5FF"/>
<path d="M487.188 143.5C497.113 143.5 505.158 135.441 505.158 125.5C505.158 115.559 497.113 107.5 487.188 107.5C477.263 107.5 469.218 115.559 469.218 125.5C469.218 135.441 477.263 143.5 487.188 143.5Z" fill="#51E5FF"/>
<path d="M299.501 108.5C309.425 108.5 317.471 100.441 317.471 90.5C317.471 80.5589 309.425 72.5 299.501 72.5C289.576 72.5 281.531 80.5589 281.531 90.5C281.531 100.441 289.576 108.5 299.501 108.5Z" fill="#51E5FF"/>
<path d="M520.133 274C530.058 274 538.103 265.941 538.103 256C538.103 246.059 530.058 238 520.133 238C510.209 238 502.163 246.059 502.163 256C502.163 265.941 510.209 274 520.133 274Z" fill="#51E5FF"/>
<path d="M83.8602 274C93.7848 274 101.83 265.941 101.83 256C101.83 246.059 93.7848 238 83.8602 238C73.9356 238 65.8901 246.059 65.8901 256C65.8901 265.941 73.9356 274 83.8602 274Z" fill="#51E5FF"/>
<path d="M297.005 121.8V178.3" stroke="#26FC90" stroke-width="2" stroke-miterlimit="10"/>
<path d="M431.98 123.9H396.339L338.935 181.5" stroke="#26FC90" stroke-width="2" stroke-miterlimit="10"/>
<path d="M167.321 123.9H197.67L256.073 182.5" stroke="#26FC90" stroke-width="2" stroke-miterlimit="10"/>
<path d="M139.068 256H166.622" stroke="#26FC90" stroke-width="2" stroke-miterlimit="10"/>
<path d="M465.225 256H431.281" stroke="#26FC90" stroke-width="2" stroke-miterlimit="10"/>
<path d="M432.28 178H166.722V334H432.28V178Z" fill="#004578"/>
<path d="M421.298 188H177.704V324H421.298V188Z" fill="#0078D4"/>
<path d="M327.454 331H271.547V383H327.454V331Z" fill="#004578"/>
<path d="M353.411 382H245.591V392H353.411V382Z" fill="#004578"/>
<path d="M353.411 392H245.591V450H353.411V392Z" fill="#005A9E"/>
<path d="M299.501 301C324.312 301 344.426 280.853 344.426 256C344.426 231.147 324.312 211 299.501 211C274.689 211 254.576 231.147 254.576 256C254.576 280.853 274.689 301 299.501 301Z" fill="#51E5FF"/>
<path d="M302.196 235.3L305.99 231C309.185 232.3 309.185 232.3 312.379 233.7L312.08 239.4C313.577 240.9 314.376 241.7 315.973 243.3L321.664 243C322.962 246.2 322.962 246.2 324.359 249.4L320.067 253.2C320.067 255.4 320.067 256.5 320.067 258.7L324.359 262.5C323.062 265.7 323.062 265.7 321.664 268.9L315.973 268.6C314.476 270.1 313.677 270.9 312.08 272.5L312.379 278.2C309.185 279.5 309.185 279.5 305.99 280.9L302.196 276.6C300 276.6 298.902 276.6 296.706 276.6L292.912 280.9C289.717 279.6 289.717 279.6 286.523 278.2L286.822 272.5C285.325 271 284.526 270.2 282.929 268.6L277.238 268.9C275.94 265.7 275.94 265.7 274.542 262.5L278.835 258.7C278.835 256.5 278.835 255.4 278.835 253.2L274.542 249.4C275.84 246.2 275.84 246.2 277.238 243L282.929 243.3C284.426 241.8 285.225 241 286.822 239.4L286.523 233.7C289.717 232.4 289.717 232.4 292.912 231L296.706 235.3C298.902 235.3 300.1 235.3 302.196 235.3Z" fill="#004578"/>
<path d="M299.501 269C306.669 269 312.479 263.18 312.479 256C312.479 248.82 306.669 243 299.501 243C292.333 243 286.522 248.82 286.522 256C286.522 263.18 292.333 269 299.501 269Z" fill="#51E5FF"/>
<path d="M238.602 198H188.686V229H238.602V198Z" fill="#51E5FF"/>
<path d="M238.602 250H209.651V302H238.602V250Z" fill="#51E5FF"/>
<path d="M391.348 270H360.399V296H391.348V270Z" fill="white"/>
<path d="M410.316 218H360.399V265H410.316V218Z" fill="#51E5FF"/>
<path d="M410.316 198H360.399V214H410.316V198Z" fill="#51E5FF"/>
<path d="M238.602 234H188.686V244H238.602V234Z" fill="white"/>
<path d="M81.2523 255.335H76.9568L74.8091 251.577L76.9568 247.818H81.2523L83.4 251.577L81.2523 255.335ZM77.5776 248.892L76.0424 251.577L77.5776 254.261H80.6314L82.1667 251.577L80.6314 248.892H77.5776ZM89.8432 261.778H91.9909V262.852H89.8432V265H88.7693V262.852H86.6216V261.778H88.7693V259.631H89.8432V261.778ZM87.6955 258.557V259.631H84.4739L82.3261 255.872L84.4739 252.114H88.7693L90.917 255.872L89.3818 258.557H88.1485L89.6838 255.872L88.1485 253.188H85.0947L83.5594 255.872L85.0947 258.557H87.6955ZM76.9568 256.409H81.2523L83.4 260.168L81.2523 263.926H76.9568L74.8091 260.168L76.9568 256.409ZM80.6314 262.852L82.1667 260.168L80.6314 257.483H77.5776L76.0424 260.168L77.5776 262.852H80.6314Z" fill="#004578"/>
<path d="M103.883 120.114V125.483H108.178V126.557H102.809V119.04H113.548V123.335H112.474V120.114H103.883ZM109.252 131.926V124.409H119.991V131.926H109.252ZM110.326 125.483V130.852H118.917V125.483H110.326ZM113.548 116.9V115.818H115.704C115.989 115.818 116.263 115.874 116.526 115.986C116.794 116.092 117.029 116.246 117.231 116.447C117.432 116.649 117.586 116.884 117.692 117.152C117.804 117.415 117.86 117.689 117.86 117.974V120.441L119.236 119.082L119.991 119.837L117.323 122.505L114.647 119.837L115.41 119.082L116.786 120.441V117.974C116.786 117.823 116.758 117.683 116.702 117.555C116.646 117.421 116.568 117.306 116.467 117.211C116.372 117.116 116.258 117.04 116.123 116.984C115.995 116.928 115.855 116.9 115.704 116.9H113.548Z" fill="#004578"/>
<path d="M304.769 91.483H303.695V97.3892C303.695 97.6129 303.654 97.8227 303.57 98.0184C303.486 98.2142 303.371 98.3848 303.226 98.5302C303.08 98.6756 302.91 98.7903 302.714 98.8742C302.518 98.9581 302.308 99 302.085 99C301.861 99 301.651 98.9581 301.455 98.8742C301.26 98.7903 301.089 98.6756 300.944 98.5302C300.798 98.3848 300.684 98.2142 300.6 98.0184C300.516 97.8227 300.474 97.6129 300.474 97.3892V91.483H299.4V90.4091H301.548V85.8032L300.474 84.7294V81.8182H303.695V84.7294L302.622 85.8032V90.4091H304.769V91.483ZM301.548 84.2763L302.085 84.8216L302.622 84.2763V82.892H301.548V84.2763ZM302.622 91.483H301.548V97.3892C301.548 97.5346 301.601 97.6605 301.707 97.7667C301.813 97.873 301.939 97.9261 302.085 97.9261C302.23 97.9261 302.356 97.873 302.462 97.7667C302.568 97.6605 302.622 97.5346 302.622 97.3892V91.483ZM296.715 81.8182C297.084 81.8182 297.431 81.8909 297.756 82.0363C298.08 82.1761 298.362 82.3691 298.603 82.6152C298.849 82.8557 299.042 83.1381 299.182 83.4625C299.327 83.7869 299.4 84.1337 299.4 84.5028C299.4 84.9223 299.305 85.3222 299.115 85.7025C298.925 86.0773 298.662 86.3905 298.326 86.6422V97.3892C298.326 97.6129 298.284 97.8227 298.2 98.0184C298.116 98.2142 298.002 98.3848 297.856 98.5302C297.711 98.6756 297.54 98.7903 297.345 98.8742C297.149 98.9581 296.939 99 296.715 99C296.492 99 296.282 98.9581 296.086 98.8742C295.89 98.7903 295.72 98.6756 295.574 98.5302C295.429 98.3848 295.314 98.2142 295.23 98.0184C295.146 97.8227 295.105 97.6129 295.105 97.3892V86.6422C294.769 86.3905 294.506 86.0773 294.316 85.7025C294.126 85.3222 294.031 84.9223 294.031 84.5028C294.031 84.1337 294.101 83.7869 294.24 83.4625C294.38 83.1381 294.57 82.8557 294.811 82.6152C295.057 82.3691 295.342 82.1761 295.667 82.0363C295.997 81.8909 296.346 81.8182 296.715 81.8182ZM297.252 86.0465C297.409 85.957 297.552 85.8619 297.68 85.7613C297.814 85.6606 297.929 85.5515 298.024 85.4341C298.119 85.311 298.192 85.174 298.242 85.023C298.298 84.872 298.326 84.6986 298.326 84.5028C298.326 84.335 298.298 84.1729 298.242 84.0162C298.192 83.8596 298.119 83.7142 298.024 83.58C297.935 83.4458 297.823 83.3283 297.689 83.2276C297.554 83.127 297.409 83.0487 297.252 82.9927V84.5028L296.715 85.0398L296.178 84.5028V82.9927C296.016 83.0487 295.868 83.127 295.734 83.2276C295.605 83.3283 295.493 83.4458 295.398 83.58C295.309 83.7142 295.236 83.8596 295.18 84.0162C295.13 84.1729 295.105 84.335 295.105 84.5028C295.105 84.6986 295.13 84.872 295.18 85.023C295.236 85.174 295.311 85.311 295.407 85.4341C295.502 85.5515 295.614 85.6606 295.742 85.7613C295.876 85.8619 296.022 85.957 296.178 86.0465V97.3892C296.178 97.5346 296.232 97.6605 296.338 97.7667C296.444 97.873 296.57 97.9261 296.715 97.9261C296.861 97.9261 296.987 97.873 297.093 97.7667C297.199 97.6605 297.252 97.5346 297.252 97.3892V86.0465Z" fill="#004578"/>
<path d="M487.45 124.335V125.409L493.927 125.417L491.502 127.85L492.258 128.606L495.991 124.872L492.258 121.139L491.502 121.894L493.952 124.344L487.45 124.335ZM486.376 121.114H478.859V128.631H486.376V121.114ZM479.933 124.335V122.188H482.081V124.335H479.933ZM483.155 122.188H485.303V124.335H483.155V122.188ZM485.303 125.409V127.557H483.155V125.409H485.303ZM482.081 127.557H479.933V125.409H482.081V127.557Z" fill="#004578"/>
<path d="M525.769 258.557H527.917V263.926H522.548V258.557H524.695V256.409H515.031V258.557H517.178V263.926H511.809V258.557H513.957V255.335H519.326V253.188H517.178V247.818H522.548V253.188H520.4V255.335H525.769V258.557ZM518.252 248.892V252.114H521.474V248.892H518.252ZM516.105 262.852V259.631H512.883V262.852H516.105ZM526.843 262.852V259.631H523.622V262.852H526.843Z" fill="#004578"/>
</svg>
