<svg width="64" height="64" viewBox="0 0 64 64" fill="none" xmlns="http://www.w3.org/2000/svg">
    <rect width="64" height="64" fill="#26FC90"/>
    <path d="M46.1 16.5H48.35V25.5H39.35V23.25H44.2895C43.6918 22.2188 42.9711 21.2871 42.1273 20.4551C41.2953 19.623 40.3695 18.9141 39.35 18.3281C38.3422 17.7422 37.2641 17.291 36.1156 16.9746C34.9789 16.6582 33.807 16.5 32.6 16.5C30.9828 16.5 29.4418 16.7754 27.977 17.3262C26.5121 17.8652 25.1879 18.6211 24.0043 19.5938C22.8324 20.5547 21.8363 21.7031 21.016 23.0391C20.2074 24.375 19.6508 25.834 19.3461 27.416L17.1313 26.9766C17.3656 25.7461 17.7348 24.5801 18.2387 23.4785C18.7543 22.377 19.3754 21.3574 20.102 20.4199C20.8402 19.4707 21.6664 18.6152 22.5805 17.8535C23.5063 17.0918 24.5023 16.4473 25.5688 15.9199C26.6352 15.3809 27.7602 14.9707 28.9438 14.6895C30.1273 14.3965 31.3461 14.25 32.6 14.25C33.9828 14.25 35.3305 14.4316 36.643 14.7949C37.9555 15.1465 39.1918 15.6562 40.352 16.3242C41.5238 16.9805 42.5961 17.7773 43.5688 18.7148C44.5531 19.6523 45.3969 20.707 46.1 21.8789V16.5ZM32.6 43.5C34.2172 43.5 35.7582 43.2305 37.223 42.6914C38.6879 42.1406 40.0063 41.3848 41.1781 40.4238C42.3617 39.4512 43.3578 38.3027 44.1664 36.9785C44.9867 35.6426 45.5492 34.1836 45.8539 32.6016L48.0512 33.0234C47.6996 34.875 47.0492 36.5801 46.1 38.1387C45.1508 39.6855 43.9906 41.0273 42.6195 42.1641C41.2484 43.2891 39.7016 44.168 37.9789 44.8008C36.268 45.4336 34.475 45.75 32.6 45.75C31.2055 45.75 29.8461 45.5742 28.5219 45.2227C27.2094 44.8594 25.973 44.3496 24.8129 43.6934C23.6527 43.0371 22.5863 42.2402 21.6137 41.3027C20.641 40.3535 19.8031 39.293 19.1 38.1211V43.5H16.85V34.5H25.85V36.75H20.9105C21.5082 37.793 22.223 38.7305 23.0551 39.5625C23.8988 40.3945 24.8246 41.1035 25.8324 41.6895C26.8402 42.2637 27.9125 42.709 29.0492 43.0254C30.1977 43.3418 31.3813 43.5 32.6 43.5Z" fill="#004578"/>
</svg>