<svg width="64" height="64" viewBox="0 0 64 64" fill="none" xmlns="http://www.w3.org/2000/svg">
    <rect width="64" height="64" fill="#26FC90"/>
    <g class="point" transform="translate(13,12)">
        <path d="M20.4496 0L30.1 9.65039V13.5H27.85V11.25H18.85V2.25H3.1V33.75H16.6V36H0.85V0H20.4496ZM21.1 9H26.2504L21.1 3.84961V9ZM32.35 33.75H34.6V36H32.35V33.75ZM27.85 33.75H30.1V36H27.85V33.75ZM23.35 33.75H25.6V36H23.35V33.75ZM27.85 15.75H30.1V18H27.85V15.75ZM23.35 15.75H25.6V18H23.35V15.75ZM18.85 33.75H21.1V36H18.85V33.75ZM32.35 29.25H34.6V31.5H32.35V29.25ZM18.85 29.25H21.1V31.5H18.85V29.25ZM32.35 24.75H34.6V27H32.35V24.75ZM18.85 24.75H21.1V27H18.85V24.75ZM32.35 20.25H34.6V22.5H32.35V20.25ZM18.85 20.25H21.1V22.5H18.85V20.25ZM34.6 15.75V18H32.35V15.75H34.6ZM18.85 15.75H21.1V18H18.85V15.75Z" fill="#004578"/>
    </g>
</svg>