<svg width="64" height="64" viewBox="0 0 64 64" fill="none" xmlns="http://www.w3.org/2000/svg">
  <rect width="64" height="64" fill="#26FC90"/>
  <path d="M21.35 14.25H19.1V12H21.35V14.25ZM25.85 14.25H23.6V12H25.85V14.25ZM30.35 14.25H28.1V12H30.35V14.25ZM34.85 18.75H32.6V16.5H34.85V18.75ZM39.35 23.25H37.1V21H39.35V23.25ZM43.85 27.75H41.6V25.5H43.85V27.75ZM34.85 14.25H32.6V12H34.85V14.25ZM41.6 18.75H39.35V16.5H41.6V18.75ZM41.6 21V18.75H43.85V21H41.6ZM46.1 25.5H48.35V27.75H46.1V25.5ZM25.85 18.75H23.6V16.5H25.85V18.75ZM30.35 18.75H28.1V16.5H30.35V18.75ZM34.85 23.25H32.6V21H34.85V23.25ZM39.35 27.75H37.1V25.5H39.35V27.75ZM30.35 23.25H28.1V21H30.35V23.25ZM34.85 27.75H32.6V25.5H34.85V27.75ZM39.35 32.25H37.1V30H39.35V32.25ZM19.1 18.75V16.5H21.35V18.75H19.1ZM21.35 21V18.75H23.6V21H21.35ZM23.6 23.25V21H25.85V23.25H23.6ZM25.85 25.5V23.25H28.1V25.5H25.85ZM28.1 27.75V25.5H30.35V27.75H28.1ZM30.35 30V27.75H32.6V30H30.35ZM32.6 32.25V30H34.85V32.25H32.6ZM34.85 34.5V32.25H37.1V34.5H34.85ZM37.1 36.75V34.5H39.35V36.75H37.1ZM39.35 39V36.75H41.6V39H39.35ZM41.6 41.25V39H43.85V41.25H41.6ZM43.85 41.25H46.1V43.5H48.35V45.75H14.6V12H16.85V14.25H19.1V16.5H16.85V43.5H43.85V41.25ZM46.1 39H48.35V41.25H46.1V39ZM46.1 34.5H48.35V36.75H46.1V34.5ZM46.1 30H48.35V32.25H46.1V30ZM43.85 36.75H41.6V34.5H43.85V36.75ZM41.6 30H43.85V32.25H41.6V30ZM41.6 14.25H39.35V12H41.6V14.25ZM46.1 18.75H48.35V21H46.1V18.75ZM48.35 12V14.25H46.1V12H48.35Z" fill="#004578"/>
</svg>