<svg width="64" height="64" viewBox="0 0 64 64" fill="none" xmlns="http://www.w3.org/2000/svg">
    <rect width="64" height="64" fill="#26FC90"/>
    <path d="M30.35 26.4316C29.5297 26.2324 28.7738 25.9102 28.0824 25.4648C27.391 25.0078 26.7934 24.4688 26.2895 23.8477C25.7973 23.2148 25.4105 22.5117 25.1293 21.7383C24.8598 20.9648 24.725 20.1562 24.725 19.3125C24.725 18.3047 24.9184 17.3613 25.3051 16.4824C25.6918 15.5918 26.2133 14.8184 26.8695 14.1621C27.5375 13.4941 28.3109 12.9668 29.1898 12.5801C30.0805 12.1934 31.0297 12 32.0375 12C33.0453 12 33.9887 12.1934 34.8676 12.5801C35.7582 12.9668 36.5316 13.4941 37.1879 14.1621C37.8559 14.8184 38.3832 15.5918 38.7699 16.4824C39.1566 17.3613 39.35 18.3047 39.35 19.3125C39.35 20.1562 39.2094 20.9648 38.9281 21.7383C38.6586 22.5117 38.2719 23.2148 37.768 23.8477C37.2758 24.4688 36.684 25.0078 35.9926 25.4648C35.3012 25.9102 34.5453 26.2324 33.725 26.4316V41.25H30.35V36.75H25.85V33.375H30.35V26.4316ZM32.0375 15.375C31.4984 15.375 30.9887 15.4805 30.5082 15.6914C30.0277 15.8906 29.6059 16.1719 29.2426 16.5352C28.891 16.8867 28.6098 17.3027 28.3988 17.7832C28.1996 18.2637 28.1 18.7734 28.1 19.3125C28.1 19.8516 28.1996 20.3613 28.3988 20.8418C28.6098 21.3223 28.891 21.7441 29.2426 22.1074C29.6059 22.459 30.0277 22.7402 30.5082 22.9512C30.9887 23.1504 31.4984 23.25 32.0375 23.25C32.5766 23.25 33.0863 23.1504 33.5668 22.9512C34.0473 22.7402 34.4633 22.459 34.8148 22.1074C35.1781 21.7441 35.4594 21.3223 35.6586 20.8418C35.8695 20.3613 35.975 19.8516 35.975 19.3125C35.975 18.7734 35.8695 18.2637 35.6586 17.7832C35.4594 17.3027 35.1781 16.8867 34.8148 16.5352C34.4633 16.1719 34.0473 15.8906 33.5668 15.6914C33.0863 15.4805 32.5766 15.375 32.0375 15.375ZM41.4594 20.9121C42.3617 21.6387 43.1703 22.4531 43.8852 23.3555C44.6 24.2461 45.2035 25.2012 45.6957 26.2207C46.1879 27.2285 46.5629 28.2891 46.8207 29.4023C47.0902 30.5156 47.225 31.6523 47.225 32.8125C47.225 34.207 47.0434 35.5547 46.6801 36.8555C46.3168 38.1445 45.8012 39.3516 45.1332 40.4766C44.477 41.6016 43.6859 42.627 42.7602 43.5527C41.8461 44.4668 40.8266 45.2578 39.7016 45.9258C38.5766 46.582 37.3637 47.0918 36.0629 47.4551C34.7738 47.8184 33.432 48 32.0375 48C30.643 48 29.2953 47.8184 27.9945 47.4551C26.7055 47.0918 25.4984 46.582 24.3734 45.9258C23.2484 45.2695 22.223 44.4785 21.2973 43.5527C20.3715 42.627 19.5805 41.6016 18.9242 40.4766C18.268 39.3516 17.7582 38.1445 17.3949 36.8555C17.0316 35.5547 16.85 34.207 16.85 32.8125C16.85 31.6523 16.9789 30.5156 17.2367 29.4023C17.5063 28.2891 17.8871 27.2285 18.3793 26.2207C18.8715 25.2012 19.475 24.2461 20.1898 23.3555C20.9047 22.4531 21.7133 21.6387 22.6156 20.9121C22.8266 22.1309 23.2484 23.2559 23.8813 24.2871C22.7094 25.4121 21.807 26.7129 21.1742 28.1895C20.5414 29.6543 20.225 31.1953 20.225 32.8125C20.225 33.9023 20.3656 34.9512 20.6469 35.959C20.9281 36.9551 21.3266 37.8926 21.8422 38.7715C22.3578 39.6504 22.973 40.4473 23.6879 41.1621C24.4027 41.877 25.1996 42.4922 26.0785 43.0078C26.9574 43.5234 27.8949 43.9219 28.891 44.2031C29.8988 44.4844 30.9477 44.625 32.0375 44.625C33.1273 44.625 34.1703 44.4844 35.1664 44.2031C36.1742 43.9219 37.1176 43.5234 37.9965 43.0078C38.8754 42.4922 39.6723 41.877 40.3871 41.1621C41.102 40.4473 41.7172 39.6504 42.2328 38.7715C42.7484 37.8926 43.1469 36.9551 43.4281 35.959C43.7094 34.9512 43.85 33.9023 43.85 32.8125C43.85 31.1953 43.5336 29.6543 42.9008 28.1895C42.268 26.7129 41.3656 25.4121 40.1938 24.2871C40.8266 23.2559 41.2484 22.1309 41.4594 20.9121Z" fill="#004578"/>
</svg>