<svg width="64" height="64" viewBox="0 0 64 64" fill="none" xmlns="http://www.w3.org/2000/svg">
    <rect width="64" height="64" fill="#26FC90"/>
    <path d="M43.2348 25.5176C44.266 25.5879 45.227 25.8398 46.1176 26.2734C47.0199 26.707 47.7992 27.2812 48.4555 27.9961C49.1234 28.6992 49.6449 29.5137 50.0199 30.4395C50.4066 31.3652 50.6 32.3438 50.6 33.375C50.6 34.4648 50.3891 35.4902 49.9672 36.4512C49.557 37.4004 48.9945 38.2324 48.2797 38.9473C47.5766 39.6504 46.7445 40.2129 45.7836 40.6348C44.8344 41.0449 43.8148 41.25 42.725 41.25H41.6V39H42.725C43.4984 39 44.225 38.8535 44.9047 38.5605C45.5961 38.2676 46.1938 37.8691 46.6977 37.3652C47.2133 36.8496 47.6176 36.252 47.9105 35.5723C48.2035 34.8809 48.35 34.1484 48.35 33.375C48.35 32.6016 48.2035 31.875 47.9105 31.1953C47.6176 30.5039 47.2133 29.9062 46.6977 29.4023C46.1938 28.8867 45.5961 28.4824 44.9047 28.1895C44.225 27.8965 43.4984 27.75 42.725 27.75C42.5141 27.75 42.3031 27.7617 42.0922 27.7852C41.893 27.8086 41.6938 27.8438 41.4945 27.8906C41.3773 26.9062 41.0902 25.998 40.6332 25.166C40.1762 24.3223 39.602 23.5957 38.9105 22.9863C38.2191 22.3652 37.4281 21.8789 36.5375 21.5273C35.6469 21.1758 34.7094 21 33.725 21C32.9047 21 32.1137 21.123 31.352 21.3691C30.5902 21.6152 29.8871 21.9609 29.2426 22.4062C28.6098 22.8516 28.0473 23.3906 27.5551 24.0234C27.0629 24.6445 26.6703 25.3418 26.3773 26.1152C25.4984 25.7051 24.5727 25.5 23.6 25.5C22.6625 25.5 21.7836 25.6758 20.9633 26.0273C20.1547 26.3789 19.4398 26.8652 18.8188 27.4863C18.2094 28.0957 17.7289 28.8105 17.3773 29.6309C17.0258 30.4512 16.85 31.3242 16.85 32.25C16.85 33.1875 17.0258 34.0664 17.3773 34.8867C17.7289 35.6953 18.2094 36.4102 18.8188 37.0312C19.4398 37.6406 20.1547 38.1211 20.9633 38.4727C21.7836 38.8242 22.6625 39 23.6 39H25.85V41.25H23.6C22.3578 41.25 21.1918 41.0156 20.102 40.5469C19.0121 40.0664 18.057 39.4219 17.2367 38.6133C16.4281 37.793 15.7836 36.8379 15.3031 35.748C14.8344 34.6582 14.6 33.4922 14.6 32.25C14.6 31.0078 14.8344 29.8418 15.3031 28.752C15.7836 27.6621 16.4281 26.7129 17.2367 25.9043C18.057 25.084 19.0121 24.4395 20.102 23.9707C21.1918 23.4902 22.3578 23.25 23.6 23.25C24.1391 23.25 24.684 23.3027 25.2348 23.4082C25.7035 22.6934 26.2484 22.0488 26.8695 21.4746C27.4906 20.9004 28.1645 20.4141 28.891 20.0156C29.6176 19.6055 30.391 19.2949 31.2113 19.084C32.0316 18.8613 32.8695 18.75 33.725 18.75C34.7914 18.75 35.8168 18.9141 36.8012 19.2422C37.7973 19.5703 38.7113 20.0332 39.5434 20.6309C40.3871 21.2168 41.1254 21.9258 41.7582 22.7578C42.391 23.5898 42.8832 24.5098 43.2348 25.5176ZM34.85 34.5V39H39.35V41.25H34.85V45.75H32.6V41.25H28.1V39H32.6V34.5H34.85Z" fill="#004578"/>
</svg>