<svg width="64" height="64" viewBox="0 0 64 64" fill="none" xmlns="http://www.w3.org/2000/svg">
    <rect width="64" height="64" fill="#26FC90"/>
    <g class="point" transform="translate(15,16)">
        <path d="M24.2121 30.2652H30.2651V24.2121H24.2121V30.2652ZM12.106 30.2652H18.1591V24.2121H12.106V30.2652ZM-3.8147e-05 6.05303H6.053V0H-3.8147e-05V6.05303ZM-3.8147e-05 30.2652H6.053V24.2121H-3.8147e-05V30.2652ZM12.106 18.1591H18.1591V12.1061H12.106V18.1591ZM-3.8147e-05 18.1591H6.053V12.1061H-3.8147e-05V18.1591Z" fill="#004578"/>
        <path d="M20.2135 5.83628V4.57524C20.442 4.76702 20.6903 4.91152 20.9583 5.00872C21.2262 5.1033 21.4968 5.15059 21.7701 5.15059C21.9303 5.15059 22.0696 5.13614 22.1878 5.10724C22.3086 5.07834 22.4085 5.03893 22.4873 4.98902C22.5687 4.93647 22.6292 4.87605 22.6686 4.80774C22.708 4.73681 22.7277 4.66062 22.7277 4.57918C22.7277 4.46883 22.6962 4.37032 22.6331 4.28362C22.57 4.19692 22.4834 4.11679 22.373 4.04323C22.2653 3.96967 22.1366 3.89874 21.9868 3.83043C21.8371 3.76212 21.6755 3.6925 21.5021 3.62157C21.0607 3.43766 20.731 3.21304 20.513 2.94769C20.2975 2.68235 20.1898 2.36183 20.1898 1.98614C20.1898 1.6919 20.2489 1.43969 20.3672 1.22952C20.4854 1.01671 20.6456 0.842005 20.8479 0.705392C21.0528 0.568778 21.2893 0.468945 21.5573 0.405892C21.8252 0.340213 22.109 0.307373 22.4085 0.307373C22.7027 0.307373 22.9628 0.325763 23.1888 0.362544C23.4173 0.396697 23.6275 0.450555 23.8193 0.524116V1.70241C23.7247 1.63673 23.6209 1.57893 23.508 1.52901C23.3976 1.4791 23.2833 1.43838 23.1651 1.40685C23.0469 1.3727 22.9287 1.34774 22.8104 1.33198C22.6948 1.31621 22.5845 1.30833 22.4794 1.30833C22.3349 1.30833 22.2036 1.32278 22.0853 1.35168C21.9671 1.37795 21.8673 1.41605 21.7858 1.46596C21.7044 1.51588 21.6413 1.5763 21.5967 1.64724C21.552 1.71554 21.5297 1.79305 21.5297 1.87974C21.5297 1.97432 21.5546 2.05971 21.6046 2.13589C21.6545 2.20946 21.7254 2.28039 21.8174 2.3487C21.9093 2.41438 22.021 2.48006 22.1523 2.54573C22.2837 2.60879 22.4321 2.67447 22.5976 2.74277C22.8236 2.83735 23.0259 2.9385 23.2045 3.04621C23.3858 3.1513 23.5408 3.27084 23.6695 3.40482C23.7983 3.53881 23.8968 3.6925 23.9651 3.8659C24.0334 4.03666 24.0675 4.23633 24.0675 4.46489C24.0675 4.78016 24.0071 5.0455 23.8863 5.26093C23.768 5.47373 23.6065 5.64713 23.4016 5.78111C23.1966 5.91247 22.9576 6.00705 22.6843 6.06485C22.4137 6.12265 22.1274 6.15155 21.8252 6.15155C21.5152 6.15155 21.2197 6.12528 20.9386 6.07273C20.6601 6.02019 20.4184 5.94137 20.2135 5.83628Z" fill="#004578"/>
        <path d="M27.3857 6.15155C26.5765 6.15155 25.9171 5.88883 25.4074 5.36339C24.8977 4.8327 24.6429 4.14569 24.6429 3.30236C24.6429 2.41175 24.9017 1.68927 25.4192 1.13494C25.9342 0.583228 26.6199 0.307373 27.4763 0.307373C28.2829 0.307373 28.9344 0.571405 29.4309 1.09947C29.9301 1.62491 30.1797 2.32111 30.1797 3.18808C30.1797 4.07344 29.9209 4.78935 29.4034 5.33581C29.385 5.3542 29.3679 5.37259 29.3521 5.39098C29.3364 5.40674 29.3193 5.4225 29.3009 5.43827L30.7314 6.8136H28.9502L28.2014 6.05303C27.9545 6.11871 27.6826 6.15155 27.3857 6.15155ZM27.4409 1.40291C26.9969 1.40291 26.6422 1.57105 26.3768 1.90733C26.1141 2.24098 25.9828 2.68366 25.9828 3.23537C25.9828 3.79496 26.1141 4.23764 26.3768 4.56341C26.6396 4.88918 26.9837 5.05207 27.4093 5.05207C27.8481 5.05207 28.1962 4.89444 28.4536 4.57918C28.7111 4.25866 28.8398 3.81861 28.8398 3.25902C28.8398 2.67578 28.715 2.21996 28.4655 1.89157C28.2185 1.56579 27.877 1.40291 27.4409 1.40291Z" fill="#004578"/>
        <path d="M34.487 6.05303H31.1215V0.401952H32.3944V5.02054H34.487V6.05303Z" fill="#004578"/>
    </g>
</svg>