<svg width="168" height="36" viewBox="0 0 168 36" fill="none" xmlns="http://www.w3.org/2000/svg">
<path d="M152.981 6.9783C154.545 6.00782 156.535 5.9154 158.288 6.37753V9.42759C157.435 9.05789 156.487 8.82682 155.587 9.19653C154.876 9.4738 154.497 10.167 154.355 10.8602C154.213 11.7382 154.308 12.6163 154.308 13.5406H159.614V10.167C160.799 9.84351 162.03 9.47381 163.215 9.1041V13.5406H166.816V16.4058C165.631 16.3596 164.399 16.4058 163.215 16.4058V21.3968C163.215 22.321 163.168 23.2453 163.262 24.1696C163.31 24.7241 163.547 25.3249 164.068 25.6022C164.92 26.0643 166.058 25.8795 166.816 25.3711V28.1901C165.773 28.6522 164.589 28.7447 163.499 28.6985C162.409 28.606 161.32 28.2363 160.609 27.4045C159.804 26.4802 159.614 25.1863 159.567 24.0309V16.4058H154.213V28.375H150.565V16.4058H148.007V13.5406H150.518C150.565 12.2928 150.376 10.9988 150.755 9.75108C151.276 8.64197 151.986 7.62528 152.981 6.9783ZM74.9983 7.20936C75.7563 7.11694 76.5144 7.348 77.0355 7.90256C77.604 8.50333 77.6988 9.4738 77.2724 10.2132C76.7986 11.0451 75.7563 11.4148 74.8561 11.1837C73.9086 10.9988 73.1032 10.167 73.1506 9.19653C73.1032 8.22605 73.956 7.30179 74.9983 7.20936ZM47.093 7.62528H52.3993C54.0575 11.692 55.7157 15.805 57.3739 19.8718C57.8003 20.8884 58.1793 21.9051 58.6531 22.9218C60.7851 17.8384 62.9171 12.7087 65.049 7.62528C66.7546 7.57907 68.4602 7.62528 70.1658 7.62528V28.3287H66.4704V12.339C66.3756 12.4314 66.3282 12.5701 66.2808 12.6625C64.1962 17.8846 62.0169 23.1067 59.9323 28.3287C59.0795 28.375 58.1793 28.3287 57.3265 28.3287C55.1472 23.1067 53.0152 17.8846 50.8358 12.6625C50.7885 12.5701 50.7411 12.4314 50.6463 12.339C50.599 14.5572 50.6463 16.8217 50.6463 19.0399V28.3287H47.1878C47.0457 21.443 47.0457 14.5572 47.093 7.62528ZM84.9949 13.4943C86.7479 12.986 88.643 13.0322 90.3959 13.4943C90.7749 13.5868 91.1066 13.7254 91.4382 13.9103V17.33C90.2538 16.452 88.7851 15.8974 87.269 16.0823C86.0846 16.1747 84.9475 16.7755 84.2369 17.6997C83.3367 18.8551 83.0998 20.3801 83.2893 21.8127C83.3841 22.9218 83.8578 24.0309 84.758 24.7703C85.6582 25.556 86.9848 25.8332 88.1692 25.7408C89.3536 25.6022 90.4907 25.14 91.4382 24.4468V27.6818C89.9695 28.5598 88.1692 28.7909 86.4636 28.6985C84.7106 28.606 82.9577 27.959 81.7259 26.7575C80.3519 25.4635 79.5939 23.615 79.4991 21.7665C79.4044 19.8718 79.8308 17.8384 80.9205 16.2671C81.9154 14.927 83.3841 13.9565 84.9949 13.4943ZM124.792 13.2633C126.497 12.986 128.25 13.1709 129.814 13.7716V17.0528C128.677 16.3133 127.35 15.8974 125.976 15.9436C125.313 15.9899 124.555 16.2671 124.223 16.8679C123.986 17.5149 124.129 18.3005 124.744 18.6702C125.787 19.3634 127.019 19.6407 128.061 20.2415C128.914 20.7036 129.719 21.3044 130.146 22.1824C130.951 23.7999 130.619 25.9719 129.198 27.1734C127.871 28.4212 125.929 28.7447 124.129 28.6985C122.849 28.606 121.57 28.375 120.433 27.8666V24.4468C121.428 25.14 122.565 25.6484 123.75 25.8332C124.602 25.9719 125.503 25.9719 126.261 25.6022C127.019 25.2325 127.113 24.2158 126.687 23.5688C126.261 23.0605 125.645 22.8294 125.076 22.5521C123.986 22.09 122.897 21.6741 121.949 20.9809C121.286 20.4725 120.765 19.7793 120.575 18.9475C120.291 17.7459 120.386 16.452 121.096 15.3891C121.997 14.2338 123.371 13.5406 124.792 13.2633ZM99.6345 13.7254C100.629 13.1246 101.909 13.0784 102.998 13.4481V17.0065C102.288 16.5444 101.387 16.3596 100.535 16.452C99.4924 16.5444 98.6869 17.33 98.2606 18.2081C97.7868 19.1323 97.692 20.1952 97.7394 21.2581V28.375H94.1387V13.5406H97.7394V16.0823C98.1184 15.158 98.687 14.2338 99.6345 13.7254ZM73.4822 13.5406H77.1303V28.375H73.5296C73.4822 23.4302 73.4822 18.4854 73.4822 13.5406Z" fill="#605E5C"/>
<path d="M118.112 17.0064C117.496 15.62 116.359 14.5109 114.937 13.8639C113.327 13.1245 111.479 13.032 109.726 13.2631C107.878 13.4942 106.125 14.326 104.941 15.7586C103.899 17.0526 103.377 18.67 103.283 20.2875C103.141 22.1822 103.472 24.2156 104.609 25.8331C105.604 27.2195 107.12 28.1437 108.826 28.5134C110.247 28.7907 111.668 28.7907 113.09 28.5134C114.748 28.1899 116.264 27.3119 117.259 26.0179C118.254 24.7702 118.728 23.2451 118.87 21.6739C118.917 20.1027 118.775 18.439 118.112 17.0064ZM114.558 23.7997C114.227 24.5853 113.564 25.1861 112.758 25.5096C111.811 25.8793 110.768 25.8793 109.773 25.6482C108.778 25.4172 107.926 24.6778 107.499 23.7997C106.931 22.6444 106.836 21.3504 106.931 20.1027C107.025 18.9473 107.452 17.792 108.352 17.0064C109.015 16.4056 109.868 16.1283 110.768 16.0821C111.858 15.9897 113.042 16.3132 113.8 17.0988C114.653 17.8844 114.985 19.086 115.08 20.1951C115.174 21.3966 115.127 22.6906 114.558 23.7997Z" fill="#605E5C"/>
<path d="M147.296 17.4224C146.728 15.9435 145.591 14.6958 144.169 13.9564C142.511 13.1245 140.569 13.0321 138.768 13.217C137.3 13.4018 135.878 13.9564 134.741 14.8806C133.367 16.036 132.562 17.6996 132.325 19.4557C132.088 21.1656 132.183 23.0141 132.894 24.6316C133.604 26.2028 134.931 27.4968 136.589 28.1438C138.2 28.7446 140 28.837 141.706 28.5597C143.459 28.2824 145.117 27.4044 146.207 26.018C147.344 24.5854 147.865 22.7369 147.865 20.9808C147.865 19.7792 147.723 18.5315 147.296 17.4224ZM143.98 22.4596C143.838 23.2452 143.553 24.0308 143.032 24.6316C142.511 25.2324 141.706 25.6483 140.9 25.7407C140.047 25.8793 139.1 25.7869 138.295 25.4634C137.394 25.0937 136.731 24.3543 136.352 23.5225C135.926 22.5058 135.831 21.3967 135.926 20.2876C136.02 19.2247 136.305 18.1618 137.015 17.3299C137.679 16.5443 138.674 16.1284 139.668 16.0822C140.711 15.9897 141.8 16.267 142.606 16.914C143.317 17.5148 143.743 18.3928 143.932 19.2709C144.169 20.3338 144.169 21.3967 143.98 22.4596Z" fill="#605E5C"/>
<path d="M1.0896 0.739502H17.9559V17.1914H1.0896V0.739502Z" fill="#C95934"/>
<path d="M19.6616 0.739502H36.4806V17.1914H19.6143C19.6616 11.692 19.6616 6.19265 19.6616 0.739502Z" fill="#87A250"/>
<path d="M1.0896 18.8547H17.9559V35.3066H1.0896V18.8547Z" fill="#4A88BE"/>
<path d="M19.6616 18.8547H36.5279V35.3066H19.6616V18.8547Z" fill="#DDA33C"/>
</svg>
