<svg width="193" height="43" viewBox="0 0 193 43" fill="none" xmlns="http://www.w3.org/2000/svg">
<path d="M175.746 8.21857C177.543 7.0756 179.828 6.96674 181.842 7.51102V11.1032C180.863 10.6678 179.774 10.3957 178.74 10.8311C177.924 11.1577 177.488 11.9741 177.325 12.7905C177.162 13.8246 177.27 14.8587 177.27 15.9473H183.366V11.9741C184.727 11.5931 186.142 11.1577 187.503 10.7222V15.9473H191.639V19.3218C190.279 19.2674 188.863 19.3218 187.503 19.3218V25.2C187.503 26.2885 187.448 27.3771 187.557 28.4656C187.612 29.1187 187.884 29.8263 188.482 30.1529C189.462 30.6971 190.768 30.4794 191.639 29.8807V33.2008C190.442 33.7451 189.081 33.8539 187.829 33.7995C186.577 33.6907 185.326 33.2552 184.509 32.2755C183.584 31.187 183.366 29.663 183.312 28.3023V19.3218H177.162V33.4185H172.971V19.3218H170.032V15.9473H172.916C172.971 14.4777 172.753 12.9538 173.188 11.4842C173.787 10.178 174.603 8.98056 175.746 8.21857ZM86.1587 8.49071C87.0296 8.38186 87.9004 8.65399 88.4991 9.30712C89.1522 10.0147 89.2611 11.1577 88.7712 12.0285C88.227 13.0082 87.0296 13.4436 85.9954 13.1715C84.9069 12.9538 83.9816 11.9741 84.036 10.8311C83.9816 9.68812 84.9613 8.59957 86.1587 8.49071ZM54.1009 8.98056H60.1968C62.1018 13.7702 64.0067 18.6142 65.9117 23.4039C66.4015 24.6013 66.837 25.7987 67.3812 26.9961C69.8305 21.009 72.2797 14.9676 74.7289 8.98056C76.6883 8.92613 78.6477 8.98056 80.6071 8.98056V33.3641H76.3618V14.5322C76.2529 14.641 76.1985 14.8043 76.1441 14.9132C73.7492 21.0635 71.2456 27.2138 68.8508 33.3641C67.8711 33.4185 66.837 33.3641 65.8573 33.3641C63.3536 27.2138 60.9044 21.0635 58.4007 14.9132C58.3463 14.8043 58.2918 14.641 58.183 14.5322C58.1285 17.1447 58.183 19.8116 58.183 22.4242V33.3641H54.2098C54.0465 25.2544 54.0465 17.1447 54.1009 8.98056ZM97.6429 15.8929C99.6567 15.2942 101.834 15.3486 103.848 15.8929C104.283 16.0017 104.664 16.165 105.045 16.3827V20.4103C103.684 19.3762 101.997 18.7231 100.255 18.9408C98.8948 19.0497 97.5885 19.7572 96.7721 20.8458C95.738 22.2064 95.4658 24.0026 95.6835 25.6898C95.7924 26.9961 96.3367 28.3023 97.3708 29.1732C98.4049 30.0984 99.9289 30.425 101.29 30.3161C102.65 30.1529 103.957 29.6086 105.045 28.7922V32.6021C103.358 33.6362 101.29 33.9084 99.3302 33.7995C97.3164 33.6907 95.3025 32.9287 93.8874 31.5136C92.309 29.9896 91.4382 27.8125 91.3293 25.6354C91.2205 23.4039 91.7103 21.009 92.9622 19.1585C94.1051 17.5801 95.7924 16.4371 97.6429 15.8929ZM143.362 15.6207C145.321 15.2942 147.335 15.5119 149.131 16.2194V20.0838C147.825 19.2129 146.301 18.7231 144.723 18.7775C143.961 18.8319 143.09 19.1585 142.709 19.8661C142.437 20.628 142.6 21.5533 143.308 21.9887C144.505 22.8052 145.92 23.1317 147.118 23.8393C148.097 24.3835 149.023 25.0911 149.512 26.1252C150.438 28.0302 150.057 30.5883 148.424 32.0034C146.9 33.4729 144.668 33.8539 142.6 33.7995C141.131 33.6907 139.661 33.4185 138.355 32.8198V28.7922C139.498 29.6086 140.804 30.2073 142.165 30.425C143.144 30.5883 144.178 30.5883 145.049 30.1529C145.92 29.7174 146.029 28.52 145.539 27.7581C145.049 27.1594 144.342 26.8872 143.689 26.5606C142.437 26.0164 141.185 25.5265 140.096 24.7101C139.334 24.1114 138.736 23.295 138.518 22.3153C138.191 20.9002 138.3 19.3762 139.117 18.1244C140.151 16.7637 141.729 15.9473 143.362 15.6207ZM114.461 16.165C115.604 15.4574 117.074 15.403 118.325 15.8384V20.0293C117.509 19.4851 116.475 19.2674 115.495 19.3762C114.298 19.4851 113.372 20.4103 112.883 21.4445C112.338 22.533 112.23 23.7848 112.284 25.0367V33.4185H108.147V15.9473H112.284V18.9408C112.719 17.8522 113.372 16.7637 114.461 16.165ZM84.417 15.9473H88.608V33.4185H84.4715C84.417 27.5948 84.417 21.771 84.417 15.9473Z" fill="white"/>
<path d="M135.688 20.0293C134.98 18.3965 133.674 17.0902 132.041 16.3282C130.191 15.4574 128.068 15.3485 126.054 15.6207C123.931 15.8928 121.918 16.8725 120.557 18.5598C119.36 20.0837 118.761 21.9887 118.652 23.8937C118.489 26.1252 118.87 28.52 120.176 30.425C121.319 32.0578 123.061 33.1463 125.02 33.5817C126.653 33.9083 128.286 33.9083 129.918 33.5817C131.823 33.2008 133.565 32.1666 134.708 30.6427C135.851 29.1731 136.395 27.377 136.559 25.5265C136.613 23.6759 136.45 21.7165 135.688 20.0293ZM131.606 28.0301C131.225 28.9554 130.463 29.663 129.538 30.044C128.449 30.4794 127.252 30.4794 126.109 30.2072C124.966 29.9351 123.986 29.0643 123.496 28.0301C122.843 26.6695 122.734 25.1455 122.843 23.6759C122.952 22.3153 123.442 20.9546 124.476 20.0293C125.238 19.3217 126.217 18.9952 127.252 18.9407C128.503 18.8319 129.864 19.2129 130.735 20.1382C131.715 21.0634 132.096 22.4785 132.204 23.7848C132.313 25.1999 132.259 26.7239 131.606 28.0301Z" fill="white"/>
<path d="M169.215 20.5193C168.562 18.7776 167.256 17.3081 165.623 16.4372C163.718 15.4575 161.487 15.3487 159.418 15.5664C157.731 15.7841 156.098 16.4372 154.792 17.5258C153.214 18.8865 152.288 20.8459 152.016 22.9141C151.744 24.9279 151.853 27.105 152.669 29.01C153.486 30.8605 155.01 32.3845 156.915 33.1465C158.765 33.854 160.833 33.9629 162.793 33.6363C164.807 33.3098 166.712 32.2756 167.963 30.6428C169.27 28.9556 169.868 26.7785 169.868 24.7102C169.868 23.2951 169.705 21.8256 169.215 20.5193ZM165.405 26.4519C165.242 27.3772 164.915 28.3024 164.317 29.01C163.718 29.7175 162.793 30.2074 161.868 30.3162C160.888 30.4795 159.799 30.3707 158.874 29.9897C157.84 29.5543 157.078 28.6834 156.642 27.7037C156.153 26.5063 156.044 25.2001 156.153 23.8938C156.261 22.642 156.588 21.3901 157.404 20.4104C158.166 19.4852 159.309 18.9953 160.452 18.9409C161.65 18.832 162.902 19.1586 163.827 19.9206C164.643 20.6281 165.133 21.6623 165.351 22.6964C165.623 23.9482 165.623 25.2001 165.405 26.4519Z" fill="white"/>
<path d="M1.25171 0.871094H20.6279V20.2473H1.25171V0.871094Z" fill="#C95934"/>
<path d="M22.5874 0.871094H41.9092V20.2473H22.533C22.5874 13.7704 22.5874 7.29354 22.5874 0.871094Z" fill="#87A250"/>
<path d="M1.25171 22.2065H20.6279V41.5827H1.25171V22.2065Z" fill="#4A88BE"/>
<path d="M22.5874 22.2065H41.9636V41.5827H22.5874V22.2065Z" fill="#DDA33C"/>
</svg>
