<svg width="37" height="35" viewBox="0 0 37 35" fill="none" xmlns="http://www.w3.org/2000/svg">
<path d="M36.3375 5.40381V7.65381H22.8375V8.77881C22.8375 9.24756 22.7496 9.68701 22.5738 10.0972C22.398 10.5073 22.1578 10.8647 21.8531 11.1694C21.5484 11.4741 21.191 11.7144 20.7809 11.8901C20.3707 12.0659 19.9312 12.1538 19.4625 12.1538C18.9937 12.1538 18.5543 12.0659 18.1441 11.8901C17.734 11.7144 17.3766 11.4741 17.0719 11.1694C16.7672 10.8647 16.527 10.5073 16.3512 10.0972C16.1754 9.68701 16.0875 9.24756 16.0875 8.77881V7.65381H0.337498V5.40381H16.0875V4.27881C16.0875 3.81006 16.1754 3.37061 16.3512 2.96045C16.527 2.55029 16.7672 2.19287 17.0719 1.88818C17.3766 1.5835 17.734 1.34326 18.1441 1.16748C18.5543 0.991699 18.9937 0.903809 19.4625 0.903809C19.9312 0.903809 20.3707 0.991699 20.7809 1.16748C21.191 1.34326 21.5484 1.5835 21.8531 1.88818C22.1578 2.19287 22.398 2.55029 22.5738 2.96045C22.7496 3.37061 22.8375 3.81006 22.8375 4.27881V5.40381H36.3375ZM28.4625 23.4038C28.9312 23.4038 29.3707 23.4917 29.7809 23.6675C30.191 23.8433 30.5484 24.0835 30.8531 24.3882C31.1578 24.6929 31.398 25.0503 31.5738 25.4604C31.7496 25.8706 31.8375 26.3101 31.8375 26.7788V27.9038H36.3375V30.1538H31.8375V31.2788C31.8375 31.7476 31.7496 32.187 31.5738 32.5972C31.398 33.0073 31.1578 33.3647 30.8531 33.6694C30.5484 33.9741 30.191 34.2144 29.7809 34.3901C29.3707 34.5659 28.9312 34.6538 28.4625 34.6538C27.9937 34.6538 27.5543 34.5659 27.1441 34.3901C26.734 34.2144 26.3766 33.9741 26.0719 33.6694C25.7672 33.3647 25.527 33.0073 25.3512 32.5972C25.1754 32.187 25.0875 31.7476 25.0875 31.2788V30.1538H0.337498V27.9038H25.0875V26.7788C25.0875 26.3101 25.1754 25.8706 25.3512 25.4604C25.527 25.0503 25.7672 24.6929 26.0719 24.3882C26.3766 24.0835 26.734 23.8433 27.1441 23.6675C27.5543 23.4917 27.9937 23.4038 28.4625 23.4038ZM8.2125 12.1538C8.68125 12.1538 9.1207 12.2417 9.53086 12.4175C9.94101 12.5933 10.2984 12.8335 10.6031 13.1382C10.9078 13.4429 11.148 13.8003 11.3238 14.2104C11.4996 14.6206 11.5875 15.0601 11.5875 15.5288V16.6538H36.3375V18.9038H11.5875V20.0288C11.5875 20.4976 11.4996 20.937 11.3238 21.3472C11.148 21.7573 10.9078 22.1147 10.6031 22.4194C10.2984 22.7241 9.94101 22.9644 9.53086 23.1401C9.1207 23.3159 8.68125 23.4038 8.2125 23.4038C7.74375 23.4038 7.30429 23.3159 6.89414 23.1401C6.48398 22.9644 6.12656 22.7241 5.82187 22.4194C5.51719 22.1147 5.27695 21.7573 5.10117 21.3472C4.92539 20.937 4.8375 20.4976 4.8375 20.0288V18.9038H0.337498V16.6538H4.8375V15.5288C4.8375 15.0601 4.92539 14.6206 5.10117 14.2104C5.27695 13.8003 5.51719 13.4429 5.82187 13.1382C6.12656 12.8335 6.48398 12.5933 6.89414 12.4175C7.30429 12.2417 7.74375 12.1538 8.2125 12.1538ZM9.3375 15.5288C9.3375 15.2241 9.22617 14.9604 9.00351 14.7378C8.78086 14.5151 8.51719 14.4038 8.2125 14.4038C7.90781 14.4038 7.64414 14.5151 7.42148 14.7378C7.19883 14.9604 7.0875 15.2241 7.0875 15.5288V20.0288C7.0875 20.3335 7.19883 20.5972 7.42148 20.8198C7.64414 21.0425 7.90781 21.1538 8.2125 21.1538C8.51719 21.1538 8.78086 21.0425 9.00351 20.8198C9.22617 20.5972 9.3375 20.3335 9.3375 20.0288V15.5288ZM20.5875 4.27881C20.5875 3.97412 20.4762 3.71045 20.2535 3.48779C20.0309 3.26514 19.7672 3.15381 19.4625 3.15381C19.1578 3.15381 18.8941 3.26514 18.6715 3.48779C18.4488 3.71045 18.3375 3.97412 18.3375 4.27881V8.77881C18.3375 9.0835 18.4488 9.34717 18.6715 9.56982C18.8941 9.79248 19.1578 9.90381 19.4625 9.90381C19.7672 9.90381 20.0309 9.79248 20.2535 9.56982C20.4762 9.34717 20.5875 9.0835 20.5875 8.77881V4.27881ZM29.5875 26.7788C29.5875 26.4741 29.4762 26.2104 29.2535 25.9878C29.0309 25.7651 28.7672 25.6538 28.4625 25.6538C28.1578 25.6538 27.8941 25.7651 27.6715 25.9878C27.4488 26.2104 27.3375 26.4741 27.3375 26.7788V31.2788C27.3375 31.5835 27.4488 31.8472 27.6715 32.0698C27.8941 32.2925 28.1578 32.4038 28.4625 32.4038C28.7672 32.4038 29.0309 32.2925 29.2535 32.0698C29.4762 31.8472 29.5875 31.5835 29.5875 31.2788V26.7788Z" fill="#004578"/>
</svg>
