<svg width="35" height="37" viewBox="0 0 35 37" fill="none" xmlns="http://www.w3.org/2000/svg">
<path d="M34.0875 5.40381V14.4038C34.0875 16.1733 33.8648 17.8433 33.4195 19.4136C32.9742 20.9839 32.359 22.4663 31.5738 23.8608C30.7887 25.2554 29.857 26.562 28.7789 27.7808C27.7125 28.9995 26.5523 30.1479 25.2984 31.2261C24.0562 32.2925 22.7437 33.2944 21.3609 34.2319C19.9898 35.1577 18.607 36.0308 17.2125 36.8511C15.818 36.0308 14.4293 35.1577 13.0465 34.2319C11.6754 33.2944 10.3629 32.2925 9.10898 31.2261C7.86679 30.1479 6.70664 28.9995 5.62851 27.7808C4.56211 26.562 3.63633 25.2554 2.85117 23.8608C2.06601 22.4663 1.45078 20.9839 1.00547 19.4136C0.560154 17.8433 0.337498 16.1733 0.337498 14.4038V5.40381C1.31015 5.40381 2.25351 5.36865 3.16758 5.29834C4.08164 5.22803 4.97226 5.09912 5.83945 4.91162C6.70664 4.72412 7.56211 4.46045 8.40586 4.12061C9.24961 3.78076 10.0934 3.34131 10.9371 2.80225C11.9332 2.15771 12.9293 1.68311 13.9254 1.37842C14.9215 1.06201 16.0172 0.903809 17.2125 0.903809C17.8102 0.903809 18.3785 0.944824 18.9176 1.02686C19.4566 1.09717 19.9781 1.21436 20.482 1.37842C20.9977 1.53076 21.5016 1.72998 21.9937 1.97607C22.4859 2.21045 22.984 2.48584 23.4879 2.80225C24.3316 3.34131 25.1754 3.78076 26.0191 4.12061C26.8629 4.46045 27.7184 4.72412 28.5855 4.91162C29.4527 5.09912 30.3434 5.22803 31.2574 5.29834C32.1715 5.36865 33.1148 5.40381 34.0875 5.40381ZM31.8375 14.4038V7.61865C30.0914 7.5249 28.4156 7.24365 26.8102 6.7749C25.2164 6.30615 23.6812 5.59717 22.2047 4.64795C21.4078 4.13232 20.6109 3.75732 19.8141 3.52295C19.0289 3.27686 18.1617 3.15381 17.2125 3.15381C16.2633 3.15381 15.3902 3.27686 14.5934 3.52295C13.8082 3.75732 13.0172 4.13232 12.2203 4.64795C10.7437 5.59717 9.20273 6.30615 7.59726 6.7749C6.00351 7.24365 4.33359 7.5249 2.5875 7.61865V14.4038C2.5875 15.8921 2.78086 17.3218 3.16758 18.6929C3.56601 20.064 4.10508 21.3706 4.78476 22.6128C5.46445 23.8433 6.27304 25.0151 7.21054 26.1284C8.14804 27.23 9.15586 28.2729 10.234 29.2573C11.3121 30.23 12.443 31.1323 13.6266 31.9644C14.8219 32.7964 16.0172 33.5581 17.2125 34.2495C18.4078 33.5581 19.5973 32.7964 20.7809 31.9644C21.9762 31.1323 23.1129 30.23 24.191 29.2573C25.2691 28.2729 26.277 27.23 27.2145 26.1284C28.152 25.0151 28.9605 23.8433 29.6402 22.6128C30.3199 21.3706 30.8531 20.064 31.2398 18.6929C31.6383 17.3218 31.8375 15.8921 31.8375 14.4038ZM17.2125 6.52881C17.9859 6.52881 18.7125 6.68115 19.3922 6.98584C20.0719 7.27881 20.6637 7.68311 21.1676 8.19873C21.6832 8.70264 22.0875 9.29443 22.3805 9.97412C22.6852 10.6538 22.8375 11.3804 22.8375 12.1538V14.4038H25.0875V25.6538H9.3375V14.4038H11.5875V12.1538C11.5875 11.3804 11.734 10.6538 12.027 9.97412C12.3199 9.29443 12.7184 8.70264 13.2223 8.19873C13.7379 7.68311 14.3355 7.27881 15.0152 6.98584C15.7066 6.68115 16.4391 6.52881 17.2125 6.52881ZM22.8375 23.4038V16.6538H11.5875V23.4038H22.8375ZM13.8375 14.4038H20.5875V12.1538C20.5875 11.6851 20.4996 11.2456 20.3238 10.8354C20.148 10.4253 19.9078 10.0679 19.6031 9.76318C19.2984 9.4585 18.941 9.21826 18.5309 9.04248C18.1207 8.8667 17.6812 8.77881 17.2125 8.77881C16.7437 8.77881 16.3043 8.8667 15.8941 9.04248C15.484 9.21826 15.1266 9.4585 14.8219 9.76318C14.5172 10.0679 14.277 10.4253 14.1012 10.8354C13.9254 11.2456 13.8375 11.6851 13.8375 12.1538V14.4038Z" fill="#004578"/>
</svg>
