<svg width="64" height="64" viewBox="0 0 64 64" fill="none" xmlns="http://www.w3.org/2000/svg">
    <rect width="64" height="64" fill="#26FC90"/>
    <path d="M50.6 17.8887V42.1113C50.6 42.5449 50.4887 42.9375 50.266 43.2891C50.0434 43.6406 49.7387 43.916 49.352 44.1152L43.059 47.2793C42.7543 47.4316 42.4145 47.5078 42.0395 47.5078C41.7465 47.5078 41.4594 47.4551 41.1781 47.3496C40.9086 47.2324 40.6684 47.0684 40.4574 46.8574L27.6957 34.0957L19.5922 40.3008C19.3695 40.4648 19.141 40.5469 18.9066 40.5469C18.766 40.5469 18.5316 40.4941 18.2035 40.3887C17.8754 40.2715 17.5238 40.1426 17.1488 40.002C16.7855 39.8613 16.434 39.7207 16.0941 39.5801C15.7543 39.4395 15.5023 39.3398 15.3383 39.2812C15.1273 39.1992 14.9516 39.0645 14.8109 38.877C14.6703 38.6777 14.6 38.4609 14.6 38.2266V21.7734C14.6 21.5391 14.6703 21.3281 14.8109 21.1406C14.9516 20.9414 15.1273 20.8008 15.3383 20.7188C15.5023 20.6602 15.7543 20.5605 16.0941 20.4199C16.434 20.2793 16.7855 20.1387 17.1488 19.998C17.5238 19.8574 17.8754 19.7344 18.2035 19.6289C18.5316 19.5117 18.766 19.4531 18.9066 19.4531C19.141 19.4531 19.3695 19.5352 19.5922 19.6992L27.6957 25.9043L40.4574 13.1426C40.6684 12.9316 40.9086 12.7734 41.1781 12.668C41.4594 12.5508 41.7465 12.4922 42.0395 12.4922C42.4145 12.4922 42.7543 12.5684 43.059 12.7207L49.352 15.8848C49.7387 16.084 50.0434 16.3594 50.266 16.7109C50.4887 17.0625 50.6 17.4551 50.6 17.8887ZM19.1 34.5L23.6 30L19.1 25.5V34.5ZM41.6 36.5918V23.4082L33.0219 30L41.6 36.5918Z" fill="#004578"/>
</svg>