<svg width="64" height="64" viewBox="0 0 64 64" fill="none" xmlns="http://www.w3.org/2000/svg">
    <rect width="64" height="64" fill="#26FC90"/>
    <path d="M48.35 27.75V43.5H50.6V48H46.1V45.75H30.35V48H25.85V43.5H28.1V34.5H19.1V36.75H14.6V32.25H16.85V16.5H14.6V12H19.1V14.25H34.85V12H39.35V16.5H37.1V25.5H46.1V23.25H50.6V27.75H48.35ZM28.1 32.25V27.75H25.85V23.25H30.35V25.5H34.85V16.5H19.1V32.25H28.1ZM30.35 27.75V32.25H34.85V27.75H30.35ZM46.1 27.75H37.1V32.25H39.35V36.75H34.85V34.5H30.35V43.5H46.1V27.75Z" fill="#004578"/>
</svg>